<svg width="54" height="54" viewBox="0 0 54 54" fill="none" xmlns="http://www.w3.org/2000/svg">
<circle cx="27" cy="27" r="27" fill="#A8ADB7" fill-opacity="0.8"/>
<g clip-path="url(#clip0_81_78)">
<path d="M27 12C18.5625 12 12 18.5625 12 27C12 36.8438 20.9062 41.0625 22.3125 41.0625C23.25 41.0625 23.25 40.5938 23.25 40.125V37.7812C19.9688 38.7188 18.5625 36.8438 18.0938 35.4375C18.0938 35.4375 18.0938 34.9688 17.1562 34.0312C16.6875 33.5625 14.8125 32.625 16.6875 32.625C18.0938 32.625 19.0312 34.5 19.0312 34.5C20.4375 36.375 22.3125 35.9062 23.25 35.4375C23.25 34.5 24.1875 33.5625 24.1875 33.5625C20.4375 33.0938 17.625 31.6875 17.625 26.5312C17.625 24.6562 18.0938 23.25 19.0312 22.3125C19.0312 22.3125 18.0938 20.4375 19.0312 18.0938C19.0312 18.0938 21.375 18.0938 23.25 19.9688C24.6562 19.0312 29.3438 19.0312 30.75 19.9688C32.625 18.0938 34.9688 18.0938 34.9688 18.0938C35.9062 21.375 34.9688 22.3125 34.9688 22.3125C35.9062 23.25 36.375 24.6562 36.375 26.5312C36.375 31.6875 33.0938 33.0938 29.8125 33.5625C30.2812 34.0312 30.75 34.9688 30.75 36.375V40.125C30.75 40.5938 30.75 41.0625 31.6875 41.0625C33.0938 41.0625 42 36.8438 42 27C42 18.5625 35.4375 12 27 12Z" fill="white"/>
</g>
<defs>
<clipPath id="clip0_81_78">
<rect width="30" height="30" fill="white" transform="translate(12 12)"/>
</clipPath>
</defs>
</svg>
