<svg width="54" height="54" viewBox="0 0 54 54" fill="none" xmlns="http://www.w3.org/2000/svg">
<circle cx="27" cy="27" r="27" fill="#A8ADB7" fill-opacity="0.8"/>
<g clip-path="url(#clip0_81_79)">
<path d="M18.983 21.6513H12.9604C12.6931 21.6513 12.4766 21.868 12.4766 22.1352V41.483C12.4766 41.7503 12.6931 41.9669 12.9604 41.9669H18.983C19.2503 41.9669 19.4669 41.7503 19.4669 41.483V22.1352C19.4669 21.868 19.2503 21.6513 18.983 21.6513Z" fill="white"/>
<path d="M15.9741 12.033C13.7828 12.033 12 13.8139 12 16.0028C12 18.1927 13.7828 19.9742 15.9741 19.9742C18.1637 19.9742 19.9451 18.1926 19.9451 16.0028C19.9452 13.8139 18.1637 12.033 15.9741 12.033Z" fill="white"/>
<path d="M34.3023 21.1704C31.8834 21.1704 30.0953 22.2102 29.0108 23.3918V22.1352C29.0108 21.868 28.7942 21.6513 28.5269 21.6513H22.7593C22.492 21.6513 22.2754 21.868 22.2754 22.1352V41.483C22.2754 41.7503 22.492 41.9669 22.7593 41.9669H28.7686C29.0359 41.9669 29.2525 41.7503 29.2525 41.483V31.9103C29.2525 28.6845 30.1287 27.4278 32.3774 27.4278C34.8263 27.4278 35.0209 29.4425 35.0209 32.0763V41.4831C35.0209 41.7504 35.2375 41.967 35.5048 41.967H41.5164C41.7837 41.967 42.0003 41.7504 42.0003 41.4831V30.8705C42.0003 26.0739 41.0857 21.1704 34.3023 21.1704Z" fill="white"/>
</g>
<defs>
<clipPath id="clip0_81_79">
<rect width="30" height="30" fill="white" transform="translate(12 12)"/>
</clipPath>
</defs>
</svg>
